<?xml version="1.0" encoding="utf-8"?>
<!-- Generator: Adobe Illustrator 25.0.1, SVG Export Plug-In . SVG Version: 6.00 Build 0)  -->
<svg version="1.1" id="Layer_1" xmlns="http://www.w3.org/2000/svg" xmlns:xlink="http://www.w3.org/1999/xlink" x="0px" y="0px"
	 viewBox="0 0 841.89 595.28" style="enable-background:new 0 0 841.89 595.28;" xml:space="preserve">
<style type="text/css">
	.st0{fill:#ED1C24;}
	.st1{fill:#FFFFFF;}
	.st2{fill:none;}
</style>
<g>
	<polygon class="st0" points="187.11,305.07 236.97,304.82 211.26,252.77 	"/>
	<path class="st0" d="M702.07,194.04c0,0-139.99-94.12-367.71-64.35c0,0-95.76,7.25-178.64,53.09c0,0-107.01,54.69-80.45,139.97
		c0,0,4.04,24.33,35.44,53.87l11.25-11.22l61.12-138.38c0,0,10.45-7.23-10.45-21.71h83.68l77.23,159.29l12.9,12.08l7.23-11.28
		l-0.13-126.11c0,0,2.76-16.92-17.56-31.59h75.62l106.83,106.75l0.2-83.42c0,0,0.8-15.31-14.49-24.94h64.36
		c0,0-16.07,14.5-13.66,32.2v106.99c0,0,11.25,61.96,69.99,70.8c0,0,90.1,11.28,123.11-45.06
		C747.92,371.04,824.37,274.5,702.07,194.04z M689.18,383.12h-89.3c7.23-8.85,11.27-18.52,11.27-18.52V233.46
		c1.62-20.92-11.27-26.54-11.27-26.54l89.61,0.31c-8.85,0.8-12.37,23.03-12.37,23.03v124.68
		C672.3,364.58,689.18,383.12,689.18,383.12z"/>
	<path class="st0" d="M420.94,84.64C188.46,84.64,0,180,0,297.64c0,117.64,188.46,213,420.94,213c232.49,0,420.95-95.36,420.95-213
		C841.89,180,653.43,84.64,420.94,84.64z M648.74,429.75c0,0-82.41,8.64-149.31-50.76l-109-108.32l-0.26,81.61
		c0,0-0.02,20.28,15.01,30.83H253.91c0,0,18.54-12.91,5.64-26.56l-12.08-27.36h-70.82l-15.29,38.61c0,0-0.82,8.02,8.85,12.87h-55.06
		c21.08,18.63,53.13,38.93,101.71,56.32c0,0,104.65,44.27,267.16,31.39c0,0,90.6-9.68,97.04-16.1c0,0,29.34,7.53,43.61,6.78
		c0,0-106.02,36.06-233.03,27.81c0,0-323.22-9.76-349.51-187.21c0,0-23.28-98.53,178.15-163.93c0,0,154.81-57.16,364.54-9.78
		c0,0,217.25,50.41,215.74,169.95C800.57,295.91,798.32,419.99,648.74,429.75z"/>
	<path class="st1" d="M584.83,125.96c-209.73-47.38-364.54,9.78-364.54,9.78C18.86,201.14,42.14,299.67,42.14,299.67
		c26.3,177.46,349.51,187.21,349.51,187.21c127.01,8.26,233.03-27.81,233.03-27.81c-14.27,0.75-43.61-6.78-43.61-6.78
		c-6.44,6.43-97.04,16.1-97.04,16.1c-162.51,12.88-267.16-31.39-267.16-31.39c-48.59-17.39-80.64-37.7-101.71-56.32h55.06
		c-9.67-4.85-8.85-12.87-8.85-12.87l15.29-38.61h70.82l12.08,27.36c12.9,13.66-5.64,26.56-5.64,26.56h151.27
		c-15.03-10.55-15.01-30.83-15.01-30.83l0.26-81.61l109,108.32c66.89,59.4,149.31,50.76,149.31,50.76
		c149.58-9.77,151.83-133.84,151.83-133.84C802.08,176.36,584.83,125.96,584.83,125.96z M187.11,305.07l24.15-52.3l25.71,52.05
		L187.11,305.07z M747.92,371.04c-33.01,56.34-123.11,45.06-123.11,45.06c-58.74-8.85-69.99-70.8-69.99-70.8V238.3
		c-2.41-17.69,13.66-32.2,13.66-32.2h-64.36c15.29,9.63,14.49,24.94,14.49,24.94l-0.2,83.42L411.59,207.71h-75.62
		c20.32,14.67,17.56,31.59,17.56,31.59l0.13,126.11l-7.23,11.28l-12.9-12.08l-77.23-159.29h-83.68
		c20.9,14.48,10.45,21.71,10.45,21.71L121.96,365.4l-11.25,11.22c-31.39-29.54-35.44-53.87-35.44-53.87
		c-26.56-85.28,80.45-139.97,80.45-139.97c82.88-45.84,178.64-53.09,178.64-53.09c227.72-29.77,367.71,64.35,367.71,64.35
		C824.37,274.5,747.92,371.04,747.92,371.04z"/>
	<path class="st1" d="M677.12,230.25c0,0,3.51-22.23,12.37-23.03l-89.61-0.31c0,0,12.9,5.62,11.27,26.54V364.6
		c0,0-4.05,9.66-11.27,18.52h89.3c0,0-16.87-18.54-12.06-28.18V230.25z"/>
	<path class="st2" d="M723.53,320.67c7.36,0.13,13.69-2.36,18.97-7.47c5.35-5.16,8.09-11.42,8.22-18.78
		c0.12-7.36-2.4-13.69-7.56-18.98c-5.11-5.33-11.38-8.07-18.78-8.2c-7.43-0.13-13.78,2.38-19.07,7.55
		c-5.23,5.1-7.9,11.36-8.04,18.79c-0.12,7.35,2.37,13.68,7.46,18.96C709.85,317.82,716.11,320.53,723.53,320.67z M713.01,276.22
		l14.89,0.27c4.14,0.07,6.93,0.88,8.37,2.42c1.43,1.54,2.14,3.63,2.08,6.26c-0.03,2.04-0.37,3.61-1.05,4.71
		c-0.6,1.1-1.76,2.28-3.48,3.54c1.62,1.08,2.6,2.05,2.93,2.94c0.4,0.83,0.72,2.7,0.96,5.62l-0.05,2.72
		c-0.01,1.1,0.07,2.01,0.22,2.71c0.17,0.65,0.58,1.5,1.28,2.57l-5.08-0.09l-0.63-4.22c-0.14-2.16-0.29-4.32-0.42-6.49
		c-0.48-2.4-2.19-3.62-5.11-3.68l-10.94-0.19l-0.24,14.29l-4.3-0.09L713.01,276.22z"/>
	<path class="st2" d="M732.12,290.75c1.18-0.67,1.78-1.95,1.82-3.81l0.02-1.32c0.03-2.09-0.55-3.51-1.76-4.23
		c-1.16-0.73-2.59-1.1-4.28-1.12l-10.69-0.19l-0.2,11.47l10.69,0.19C729.47,291.77,730.94,291.43,732.12,290.75z"/>
	<path class="st1" d="M716.96,295.31l10.94,0.19c2.92,0.05,4.63,1.28,5.11,3.68c0.13,2.17,0.28,4.33,0.42,6.49l0.63,4.22l5.08,0.09
		c-0.7-1.07-1.11-1.92-1.28-2.57c-0.15-0.71-0.23-1.61-0.22-2.71l0.05-2.72c-0.24-2.92-0.56-4.79-0.96-5.62
		c-0.33-0.89-1.31-1.86-2.93-2.94c1.72-1.26,2.89-2.44,3.48-3.54c0.67-1.09,1.01-2.67,1.05-4.71c0.05-2.64-0.65-4.72-2.08-6.26
		c-1.43-1.54-4.22-2.36-8.37-2.42l-14.89-0.27l-0.58,33.29l4.3,0.09L716.96,295.31z M717.23,280.07l10.69,0.19
		c1.69,0.02,3.12,0.4,4.28,1.12c1.21,0.73,1.8,2.14,1.76,4.23l-0.02,1.32c-0.03,1.86-0.64,3.14-1.82,3.81
		c-1.18,0.68-2.65,1.01-4.4,0.98l-10.69-0.19L717.23,280.07z"/>
	<path class="st1" d="M723.48,324.17c8.34,0.14,15.53-2.69,21.53-8.48c6-5.8,9.07-12.87,9.22-21.22c0.13-8.35-2.69-15.54-8.49-21.54
		c-5.79-6-12.87-9.07-21.22-9.22c-8.35-0.15-15.52,2.68-21.53,8.48c-6,5.79-9.08,12.86-9.23,21.22c-0.14,8.35,2.68,15.53,8.48,21.54
		C708.05,320.95,715.12,324.02,723.48,324.17z M705.31,274.78c5.29-5.17,11.64-7.68,19.07-7.55c7.41,0.13,13.67,2.87,18.78,8.2
		c5.16,5.29,7.68,11.62,7.56,18.98c-0.13,7.36-2.88,13.63-8.22,18.78c-5.28,5.12-11.61,7.61-18.97,7.47
		c-7.42-0.13-13.68-2.84-18.79-8.14c-5.09-5.28-7.58-11.61-7.46-18.96C697.41,286.14,700.09,279.88,705.31,274.78z"/>
</g>
</svg>
